<mxfile host="app.diagrams.net" modified="2023-04-19T09:47:28.736Z" agent="Mozilla/5.0 (Windows NT 10.0; Win64; x64) AppleWebKit/537.36 (KHTML, like Gecko) Chrome/112.0.0.0 Safari/537.36" etag="P-VnOBo0MJ8Z5grBvaQo" version="21.1.8" type="github">
  <diagram name="Page-1" id="LU8CSEMPoXpAPpUkOETY">
    <mxGraphModel dx="2261" dy="1925" grid="1" gridSize="10" guides="1" tooltips="1" connect="1" arrows="1" fold="1" page="1" pageScale="1" pageWidth="827" pageHeight="1169" math="0" shadow="0">
      <root>
        <mxCell id="0" />
        <mxCell id="1" parent="0" />
        <mxCell id="w0e98ejljB4lEu14B-Ai-32" value="" style="rounded=0;whiteSpace=wrap;html=1;" vertex="1" parent="1">
          <mxGeometry x="-100" y="240" width="1030" height="190" as="geometry" />
        </mxCell>
        <mxCell id="w0e98ejljB4lEu14B-Ai-8" value="" style="rounded=0;whiteSpace=wrap;html=1;" vertex="1" parent="1">
          <mxGeometry x="-70" y="250" width="300" height="170" as="geometry" />
        </mxCell>
        <mxCell id="w0e98ejljB4lEu14B-Ai-7" style="edgeStyle=orthogonalEdgeStyle;rounded=0;orthogonalLoop=1;jettySize=auto;html=1;entryX=0.5;entryY=0;entryDx=0;entryDy=0;strokeColor=#736CA8;fontColor=#1A1A1A;" edge="1" parent="1" source="w0e98ejljB4lEu14B-Ai-1" target="w0e98ejljB4lEu14B-Ai-2">
          <mxGeometry relative="1" as="geometry" />
        </mxCell>
        <mxCell id="w0e98ejljB4lEu14B-Ai-1" value="INPUT&lt;br&gt;Peso, Pao, Vt, PEEP" style="rounded=0;whiteSpace=wrap;html=1;labelBackgroundColor=none;fillColor=#5D7F99;strokeColor=#D0CEE2;fontColor=#1A1A1A;" vertex="1" parent="1">
          <mxGeometry x="20" y="120" width="120" height="60" as="geometry" />
        </mxCell>
        <mxCell id="w0e98ejljB4lEu14B-Ai-22" style="edgeStyle=orthogonalEdgeStyle;rounded=0;orthogonalLoop=1;jettySize=auto;html=1;strokeColor=#736CA8;fontColor=#1A1A1A;" edge="1" parent="1" source="w0e98ejljB4lEu14B-Ai-2" target="w0e98ejljB4lEu14B-Ai-21">
          <mxGeometry relative="1" as="geometry" />
        </mxCell>
        <mxCell id="w0e98ejljB4lEu14B-Ai-2" value="Preprocessing Module" style="rounded=0;whiteSpace=wrap;html=1;strokeColor=#D0CEE2;fontColor=#1A1A1A;fillColor=#5D7F99;fontStyle=1" vertex="1" parent="1">
          <mxGeometry x="20" y="260" width="120" height="60" as="geometry" />
        </mxCell>
        <mxCell id="w0e98ejljB4lEu14B-Ai-5" style="edgeStyle=orthogonalEdgeStyle;rounded=0;orthogonalLoop=1;jettySize=auto;html=1;entryX=0.5;entryY=1;entryDx=0;entryDy=0;strokeColor=#736CA8;fontColor=#1A1A1A;endArrow=none;endFill=0;" edge="1" parent="1" source="w0e98ejljB4lEu14B-Ai-3" target="w0e98ejljB4lEu14B-Ai-2">
          <mxGeometry relative="1" as="geometry">
            <Array as="points">
              <mxPoint y="330" />
              <mxPoint x="80" y="330" />
            </Array>
          </mxGeometry>
        </mxCell>
        <mxCell id="w0e98ejljB4lEu14B-Ai-3" value="Frequency Filtering" style="rounded=0;whiteSpace=wrap;html=1;fillColor=#ffe6cc;strokeColor=#d79b00;" vertex="1" parent="1">
          <mxGeometry x="-60" y="350" width="120" height="60" as="geometry" />
        </mxCell>
        <mxCell id="w0e98ejljB4lEu14B-Ai-6" style="edgeStyle=orthogonalEdgeStyle;rounded=0;orthogonalLoop=1;jettySize=auto;html=1;entryX=0.5;entryY=1;entryDx=0;entryDy=0;strokeColor=#736CA8;fontColor=#1A1A1A;endArrow=none;endFill=0;" edge="1" parent="1" source="w0e98ejljB4lEu14B-Ai-4" target="w0e98ejljB4lEu14B-Ai-2">
          <mxGeometry relative="1" as="geometry" />
        </mxCell>
        <mxCell id="w0e98ejljB4lEu14B-Ai-4" value="Statistical Filtering" style="rounded=0;whiteSpace=wrap;html=1;fillColor=#ffe6cc;strokeColor=#d79b00;" vertex="1" parent="1">
          <mxGeometry x="100" y="350" width="120" height="60" as="geometry" />
        </mxCell>
        <mxCell id="w0e98ejljB4lEu14B-Ai-9" value="" style="rounded=0;whiteSpace=wrap;html=1;" vertex="1" parent="1">
          <mxGeometry x="414" y="250" width="140" height="170" as="geometry" />
        </mxCell>
        <mxCell id="w0e98ejljB4lEu14B-Ai-15" style="edgeStyle=orthogonalEdgeStyle;rounded=0;orthogonalLoop=1;jettySize=auto;html=1;entryX=0.5;entryY=0;entryDx=0;entryDy=0;strokeColor=#736CA8;fontColor=#1A1A1A;endArrow=none;endFill=0;" edge="1" parent="1" source="w0e98ejljB4lEu14B-Ai-10" target="w0e98ejljB4lEu14B-Ai-12">
          <mxGeometry relative="1" as="geometry" />
        </mxCell>
        <mxCell id="w0e98ejljB4lEu14B-Ai-24" style="edgeStyle=orthogonalEdgeStyle;rounded=0;orthogonalLoop=1;jettySize=auto;html=1;strokeColor=#736CA8;fontColor=#1A1A1A;" edge="1" parent="1" source="w0e98ejljB4lEu14B-Ai-10">
          <mxGeometry relative="1" as="geometry">
            <mxPoint x="600" y="290" as="targetPoint" />
          </mxGeometry>
        </mxCell>
        <mxCell id="w0e98ejljB4lEu14B-Ai-10" value="Compliance Estimation" style="rounded=0;whiteSpace=wrap;html=1;strokeColor=#D0CEE2;fontColor=#1A1A1A;fillColor=#5D7F99;fontStyle=1" vertex="1" parent="1">
          <mxGeometry x="424" y="260" width="120" height="60" as="geometry" />
        </mxCell>
        <mxCell id="w0e98ejljB4lEu14B-Ai-12" value="Constrained Optimization" style="rounded=0;whiteSpace=wrap;html=1;fillColor=#ffe6cc;strokeColor=#d79b00;" vertex="1" parent="1">
          <mxGeometry x="424" y="350" width="120" height="60" as="geometry" />
        </mxCell>
        <mxCell id="w0e98ejljB4lEu14B-Ai-16" value="" style="rounded=0;whiteSpace=wrap;html=1;" vertex="1" parent="1">
          <mxGeometry x="760" y="250" width="140" height="170" as="geometry" />
        </mxCell>
        <mxCell id="w0e98ejljB4lEu14B-Ai-17" style="edgeStyle=orthogonalEdgeStyle;rounded=0;orthogonalLoop=1;jettySize=auto;html=1;entryX=0.5;entryY=0;entryDx=0;entryDy=0;strokeColor=#736CA8;fontColor=#1A1A1A;" edge="1" parent="1" source="w0e98ejljB4lEu14B-Ai-18" target="w0e98ejljB4lEu14B-Ai-19">
          <mxGeometry relative="1" as="geometry" />
        </mxCell>
        <mxCell id="w0e98ejljB4lEu14B-Ai-33" style="edgeStyle=orthogonalEdgeStyle;rounded=0;orthogonalLoop=1;jettySize=auto;html=1;strokeColor=#736CA8;fontColor=#1A1A1A;" edge="1" parent="1" source="w0e98ejljB4lEu14B-Ai-18">
          <mxGeometry relative="1" as="geometry">
            <mxPoint x="830" y="180" as="targetPoint" />
          </mxGeometry>
        </mxCell>
        <mxCell id="w0e98ejljB4lEu14B-Ai-18" value="Abnormal Compliance Detection" style="rounded=0;whiteSpace=wrap;html=1;strokeColor=#D0CEE2;fontColor=#1A1A1A;fillColor=#5D7F99;fontStyle=1" vertex="1" parent="1">
          <mxGeometry x="770" y="260" width="120" height="60" as="geometry" />
        </mxCell>
        <mxCell id="w0e98ejljB4lEu14B-Ai-19" value="Estimate Peso at compliance spikes" style="rounded=0;whiteSpace=wrap;html=1;fillColor=#ffe6cc;strokeColor=#d79b00;" vertex="1" parent="1">
          <mxGeometry x="770" y="350" width="120" height="60" as="geometry" />
        </mxCell>
        <mxCell id="w0e98ejljB4lEu14B-Ai-23" style="edgeStyle=orthogonalEdgeStyle;rounded=0;orthogonalLoop=1;jettySize=auto;html=1;strokeColor=#736CA8;fontColor=#1A1A1A;" edge="1" parent="1" source="w0e98ejljB4lEu14B-Ai-21" target="w0e98ejljB4lEu14B-Ai-10">
          <mxGeometry relative="1" as="geometry" />
        </mxCell>
        <mxCell id="w0e98ejljB4lEu14B-Ai-21" value="Preprocessed Data" style="rounded=0;whiteSpace=wrap;html=1;strokeColor=#D0CEE2;fontColor=#1A1A1A;fillColor=#5D7F99;" vertex="1" parent="1">
          <mxGeometry x="260" y="260" width="120" height="60" as="geometry" />
        </mxCell>
        <mxCell id="w0e98ejljB4lEu14B-Ai-26" style="edgeStyle=orthogonalEdgeStyle;rounded=0;orthogonalLoop=1;jettySize=auto;html=1;entryX=0;entryY=0.5;entryDx=0;entryDy=0;strokeColor=#736CA8;fontColor=#1A1A1A;" edge="1" parent="1" source="w0e98ejljB4lEu14B-Ai-25" target="w0e98ejljB4lEu14B-Ai-18">
          <mxGeometry relative="1" as="geometry" />
        </mxCell>
        <mxCell id="w0e98ejljB4lEu14B-Ai-25" value="Patient specific Peso relationship" style="rounded=0;whiteSpace=wrap;html=1;strokeColor=#D0CEE2;fontColor=#1A1A1A;fillColor=#5D7F99;" vertex="1" parent="1">
          <mxGeometry x="600" y="260" width="120" height="60" as="geometry" />
        </mxCell>
        <mxCell id="w0e98ejljB4lEu14B-Ai-34" value="OUTPUT&lt;br&gt;Suggested PS setting" style="rounded=0;whiteSpace=wrap;html=1;strokeColor=#D0CEE2;fontColor=#1A1A1A;fillColor=#5D7F99;fontStyle=1" vertex="1" parent="1">
          <mxGeometry x="770" y="120" width="120" height="60" as="geometry" />
        </mxCell>
        <mxCell id="w0e98ejljB4lEu14B-Ai-35" value="Module Artchitecture" style="text;html=1;strokeColor=none;fillColor=none;align=center;verticalAlign=middle;whiteSpace=wrap;rounded=0;fontColor=#1A1A1A;fontSize=40;fontStyle=1" vertex="1" parent="1">
          <mxGeometry x="360" y="20" width="110" height="30" as="geometry" />
        </mxCell>
      </root>
    </mxGraphModel>
  </diagram>
</mxfile>
